<svg width="200" height="200" xmlns="http://www.w3.org/2000/svg">
  <g fill="white">
    <!-- Central circle -->
    <circle cx="100" cy="100" r="40" />
    <rect x="95" y="20" width="10" height="20" transform="rotate(0 100 100)" />
    <rect x="95" y="20" width="10" height="20" transform="rotate(45 100 100)" />
    <rect x="95" y="20" width="10" height="20" transform="rotate(90 100 100)" />
    <rect x="95" y="20" width="10" height="20" transform="rotate(135 100 100)" />
    <rect x="95" y="20" width="10" height="20" transform="rotate(180 100 100)" />
    <rect x="95" y="20" width="10" height="20" transform="rotate(225 100 100)" />
    <rect x="95" y="20" width="10" height="20" transform="rotate(270 100 100)" />
    <rect x="95" y="20" width="10" height="20" transform="rotate(315 100 100)" />
  </g>
</svg>